Coordinates
version=1
nRows=13
nColumns=34
inDegrees=yes

Units are S.I. units (second, meters, Newtons, ...)
If the header above contains a line with 'inDegrees', this indicates whether rotational values are in degrees (yes) or radians (no).

endheader
time	pelvis_tilt	pelvis_list	pelvis_rotation	pelvis_tx	pelvis_ty	pelvis_tz	hip_flexion_r	hip_adduction_r	hip_rotation_r	knee_angle_r	ankle_angle_r	subtalar_angle_r	mtp_angle_r	hip_flexion_l	hip_adduction_l	hip_rotation_l	knee_angle_l	ankle_angle_l	subtalar_angle_l	mtp_angle_l	lumbar_extension	lumbar_bending	lumbar_rotation	arm_flex_r	arm_add_r	arm_rot_r	elbow_flex_r	pro_sup_r	arm_flex_l	arm_add_l	arm_rot_l	elbow_flex_l	pro_sup_l
      2.84905660	     -3.71144448	     -0.96229154	    222.11435807	     -2.49732359	      1.16342290	      0.72580494	     15.74046680	      2.85198995	      1.41300756	     31.33153990	     17.11151259	     -4.16809084	      0.00000000	     17.80069040	     -4.94018582	      1.10321649	     76.91694259	     14.78618578	     -1.56940971	      0.00000000	    -11.66580563	      1.10295571	      0.18614031	     -7.39341594	    -13.50778693	     -8.14524724	     57.89076389	    119.74817918	   -370.46951919	    -17.62045787	   -354.20693262	    106.72458315	    119.74817918
      2.86792450	     -3.69076366	     -0.96620905	    222.10849038	     -2.49774819	      1.16343644	      0.72592502	     15.73139616	      2.85660353	      1.41006833	     31.33931940	     17.11266211	     -4.16807311	      0.00000000	     17.80278766	     -4.94433070	      1.10349960	     76.91913621	     14.79011407	     -1.57182775	      0.00000000	    -11.66892779	      1.10897232	      0.18126827	     -7.39290354	    -13.50336432	     -8.14390417	     57.89721725	    119.74817918	   -370.46843308	    -17.61976289	   -354.20776305	    106.71437309	    119.74817918
      2.88679250	     -3.64044445	     -0.96266825	    222.09620550	     -2.49819991	      1.16325696	      0.72621771	     15.82054517	      2.81593244	      1.31740523	     31.49961226	     17.24875712	     -4.14483342	      0.00000000	     17.81073061	     -4.98868428	      0.97601807	     76.87872860	     15.06271479	     -1.68868143	      0.00000000	    -11.62618534	      1.16600526	      0.07497600	     -7.49409400	    -13.48170123	     -8.14737295	     58.36461762	    119.74817918	   -370.47570429	    -17.59027116	   -354.31689736	    106.13476140	    119.74817918
      2.90566040	     -3.62201613	     -0.96679001	    222.08881965	     -2.49860948	      1.16325476	      0.72634807	     15.81123407	      2.81958201	      1.31502671	     31.50431672	     17.24880409	     -4.14410084	      0.00000000	     17.81742773	     -4.99203036	      0.98146014	     76.87423459	     15.06361144	     -1.68879446	      0.00000000	    -11.63057599	      1.17053596	      0.07460874	     -7.49482504	    -13.48039291	     -8.14692337	     58.36705421	    119.74817918	   -370.47429344	    -17.58650598	   -354.31484014	    106.13514655	    119.74817918
      2.92452830	     -3.60226044	     -0.97056265	    222.08121634	     -2.49904422	      1.16318786	      0.72647182	     15.80299677	      2.82444395	      1.31194155	     31.50920866	     17.24926459	     -4.14368904	      0.00000000	     17.82500810	     -4.99531345	      0.98661761	     76.86565272	     15.06488397	     -1.68902981	      0.00000000	    -11.63767007	      1.17590376	      0.07393126	     -7.49549915	    -13.47824600	     -8.14610966	     58.37004897	    119.74817918	   -370.47380234	    -17.58270227	   -354.31237057	    106.13470695	    119.74817918
      2.94339620	     -3.57963703	     -0.96894204	    222.04885585	     -2.49940380	      1.16322314	      0.72659090	     15.80404183	      2.83576805	      1.29982041	     31.51490924	     17.25480613	     -4.14357850	      0.00000000	     17.85025725	     -5.00026678	      1.00088529	     76.81646230	     15.07172208	     -1.68998598	      0.00000000	    -11.66556003	      1.17953818	      0.06431685	     -7.51090719	    -13.46486647	     -8.14129740	     58.38353581	    119.74817918	   -370.48189381	    -17.56857326	   -354.30031208	    106.12748070	    119.74817918
      2.96226420	     -3.56288224	     -0.97127338	    222.04715586	     -2.49991761	      1.16317097	      0.72668195	     15.80018737	      2.84107937	      1.29687001	     31.51828892	     17.25543250	     -4.14338651	      0.00000000	     17.85321004	     -5.00067986	      1.00241015	     76.81056328	     15.07324223	     -1.69053625	      0.00000000	    -11.67151990	      1.18545076	      0.06528812	     -7.50938718	    -13.46304784	     -8.14053247	     58.38740695	    119.74817918	   -370.48239990	    -17.56621104	   -354.29846429	    106.12619468	    119.74817918
      2.98113210	     -3.53799547	     -0.94510873	    221.98259676	     -2.50050772	      1.16316204	      0.72675875	     15.84923621	      2.85971525	      1.21500305	     31.57814075	     17.29432724	     -4.14345733	      0.00000000	     17.81505804	     -4.99693371	      1.01862080	     76.70168913	     15.15612855	     -1.72864817	      0.00000000	    -11.62825339	      1.20620958	      0.08224992	     -7.50130278	    -13.38784004	     -8.11567850	     58.57403689	    119.74817918	   -370.53211832	    -17.51759395	   -354.25093562	    106.04390215	    119.74817918
      3.00000000	     -3.51773678	     -0.95182505	    221.96782252	     -2.50088188	      1.16313816	      0.72687978	     15.84490898	      2.86234859	      1.21147481	     31.58469186	     17.29631743	     -4.14157442	      0.00000000	     17.83664262	     -5.00383295	      1.01887153	     76.68577139	     15.16335512	     -1.73242726	      0.00000000	    -11.65154165	      1.21502520	      0.07102117	     -7.52295243	    -13.39345078	     -8.11798716	     58.57626260	    119.74817918	   -370.53581145	    -17.51905601	   -354.25083920	    106.03750791	    119.74817918
      3.01886790	     -3.50254069	     -0.95700263	    221.96489951	     -2.50129499	      1.16309626	      0.72698466	     15.84120745	      2.86736871	      1.20920760	     31.58815085	     17.29674991	     -4.14106747	      0.00000000	     17.84272051	     -5.00591332	      1.01916676	     76.68040600	     15.16551071	     -1.73363259	      0.00000000	    -11.65926434	      1.22059765	      0.06902721	     -7.52601723	    -13.39488547	     -8.11853081	     58.57798437	    119.74817918	   -370.53617714	    -17.51900948	   -354.25060632	    106.03565742	    119.74817918
      3.03773580	     -3.47913089	     -0.94992034	    221.95016838	     -2.50163146	      1.16311662	      0.72702285	     15.86582227	      2.87700347	      1.19149168	     31.59922694	     17.30850868	     -4.14053073	      0.00000000	     17.86127347	     -5.01631852	      1.00953696	     76.62483066	     15.19085904	     -1.74797463	      0.00000000	    -11.70386471	      1.22900703	      0.05190358	     -7.56331106	    -13.39885544	     -8.11987598	     58.60562024	    119.74817918	   -370.55566461	    -17.52437173	   -354.24774729	    106.00683895	    119.74817918
      3.05660380	     -3.46222604	     -0.95930015	    221.94732667	     -2.50197007	      1.16303984	      0.72708690	     15.86216385	      2.87856631	      1.18909690	     31.60381235	     17.30898719	     -4.14035240	      0.00000000	     17.86175509	     -5.02272620	      1.01277135	     76.62020570	     15.19366869	     -1.74995296	      0.00000000	    -11.70381458	      1.23726888	      0.05211485	     -7.56266648	    -13.39859132	     -8.11988643	     58.61025292	    119.74817918	   -370.55521942	    -17.52463854	   -354.24802179	    106.00459013	    119.74817918
      3.07547170	     -3.43834609	     -0.94253719	    221.91030184	     -2.50238627	      1.16309396	      0.72707942	     15.90016919	      2.89623746	      1.14981731	     31.62484398	     17.32336867	     -4.14086010	      0.00000000	     17.84268836	     -5.04463407	      1.00507836	     76.52772729	     15.23656678	     -1.77520446	      0.00000000	    -11.70797373	      1.23545270	      0.01552515	     -7.59405797	    -13.39840098	     -8.12365605	     58.67515218	    119.74817918	   -370.57265730	    -17.53435305	   -354.24688071	    105.95133447	    119.74817918
